# xmcd CD database file
#
# Track frame offsets:
#	183
#	21293
#	52034
#	76784
#	120702
#	143759
#	177187
#	201026
#	232606
#	254379
#	271301
#	295634
#
# Disc length: 4303 seconds
#
# Revision: 0
# Processed by: cddbd v1.5.1PL2 Copyright (c) Steve Scherf et al.
# Submitted via: CDex 1.51
#
DISCID=9c10cd0c
DTITLE=KORA JAZZ TRIO - Part Two
DYEAR=2005
DGENRE=Jazz
TTITLE0=Djame
TTITLE1=Folly
TTITLE2=Sunugal
TTITLE3=Dadiou
TTITLE4=Rythm'ning
TTITLE5=Sindi
TTITLE6=N'Na
TTITLE7=Seyo
TTITLE8=Terenga
TTITLE9=La Mer
TTITLE10=Yakar
TTITLE11=Djanya
EXTD=YEAR: 2005
EXTT0=
EXTT1=
EXTT2=
EXTT3=
EXTT4=
EXTT5=
EXTT6=
EXTT7=
EXTT8=
EXTT9=
EXTT10=
EXTT11=
PLAYORDER=
